<?xml version="1.0" standalone="no"?>
<!DOCTYPE svg PUBLIC "-//W3C//DTD SVG 20010904//EN"
 "http://www.w3.org/TR/2001/REC-SVG-20010904/DTD/svg10.dtd">
<svg version="1.0" xmlns="http://www.w3.org/2000/svg"
 width="825.000000pt" height="803.000000pt" viewBox="0 0 825.000000 803.000000"
 preserveAspectRatio="xMidYMid meet">

<g transform="translate(0.000000,803.000000) scale(0.100000,-0.100000)"
fill="#000000" stroke="none">
<path d="M0 4015 l0 -4015 4125 0 4125 0 0 4015 0 4015 -4125 0 -4125 0 0
-4015z m4770 2850 c34 -42 108 -112 164 -157 147 -118 185 -157 316 -318 126
-155 221 -251 341 -342 92 -71 226 -207 306 -313 61 -81 136 -156 207 -209 59
-44 121 -114 146 -162 11 -24 25 -46 31 -49 19 -12 8 -32 -30 -51 -74 -37
-228 -180 -381 -355 -47 -54 -117 -117 -188 -170 -132 -98 -215 -182 -365
-369 -180 -224 -273 -319 -389 -395 -119 -79 -189 -147 -256 -248 -47 -73
-100 -129 -247 -267 -45 -41 -116 -115 -160 -165 -107 -123 -188 -200 -265
-251 -67 -45 -112 -84 -168 -147 -36 -40 -52 -47 -52 -19 0 34 71 123 148 185
149 120 295 273 597 622 165 191 250 274 304 298 78 34 154 100 211 184 85
125 116 159 219 242 53 43 148 131 211 196 107 109 278 266 413 378 31 27 57
55 57 64 0 8 -17 36 -39 62 -89 107 -104 173 -68 293 63 204 53 228 -167 401
-78 61 -170 168 -202 235 -23 49 -76 105 -148 156 -35 25 -88 75 -119 113 -79
97 -172 183 -196 183 -12 0 -39 -11 -59 -25 -64 -42 -150 -68 -227 -67 -84 0
-150 21 -224 71 -103 69 -97 66 -115 51 -9 -7 -32 -46 -51 -87 -41 -89 -111
-160 -237 -242 -48 -31 -113 -73 -145 -93 -32 -21 -70 -47 -86 -60 -21 -17
-30 -19 -39 -10 -10 10 5 31 77 100 416 402 471 458 628 644 98 117 151 168
173 168 6 0 39 -34 74 -75z m-312 -495 c15 -11 61 -32 101 -45 123 -42 271
-31 389 29 57 29 53 31 156 -89 77 -90 89 -101 174 -167 44 -34 79 -74 125
-145 76 -117 144 -189 252 -268 44 -32 85 -66 92 -74 27 -34 26 -80 -2 -162
-23 -67 -26 -93 -23 -157 4 -77 19 -121 70 -204 l23 -36 -30 -24 c-65 -50
-207 -182 -350 -325 -82 -82 -183 -176 -223 -207 l-74 -58 -38 31 c-21 17 -43
31 -49 31 -27 0 -249 -221 -379 -377 -46 -57 -86 -103 -88 -103 -2 0 21 42 52
93 81 135 102 183 114 267 7 41 20 100 30 132 42 128 33 224 -30 353 -50 100
-187 266 -288 346 -39 32 -49 48 -71 116 -15 43 -51 120 -81 171 -30 52 -71
120 -90 153 -46 79 -142 183 -229 250 l-71 53 26 27 c14 15 49 39 77 54 156
84 301 204 364 303 18 28 36 52 39 52 3 0 17 -9 32 -20z m-1643 -635 c73 -36
111 -87 121 -163 22 -175 -78 -353 -307 -543 -266 -222 -285 -244 -498 -564
-142 -213 -174 -269 -220 -380 -77 -189 -128 -260 -217 -302 -31 -15 -36 -15
-73 2 -56 25 -76 50 -100 125 -44 134 -48 269 -15 518 26 201 106 418 230 628
225 381 534 637 849 704 72 16 169 5 230 -25z m1715 -752 c0 -8 -22 10 -50 38
-27 28 -50 56 -50 62 0 6 23 -11 50 -38 28 -27 50 -55 50 -62z m35 -33 c3 -5
2 -10 -4 -10 -5 0 -13 5 -16 10 -3 6 -2 10 4 10 5 0 13 -4 16 -10z m-553 -37
c30 -34 49 -84 57 -149 6 -55 13 -70 43 -102 25 -26 38 -49 41 -77 11 -85 28
-138 53 -168 14 -17 30 -41 35 -54 11 -29 39 -31 39 -3 0 12 -9 38 -20 60 -11
22 -20 54 -20 72 0 18 -7 42 -15 52 -8 11 -15 33 -15 48 0 36 -21 77 -54 105
-20 18 -26 32 -26 63 0 24 -11 62 -25 90 -14 27 -25 51 -25 54 0 2 43 3 95 2
l95 -1 4 -30 c18 -116 26 -234 28 -387 3 -166 2 -178 -18 -205 -16 -21 -31
-29 -62 -31 -36 -3 -41 0 -44 20 -2 17 -14 26 -48 37 -25 7 -57 20 -72 27 -14
8 -35 14 -46 14 -10 0 -36 14 -57 30 -21 17 -49 30 -63 30 -23 0 -82 44 -82
61 0 4 10 9 23 13 13 3 36 17 51 31 15 14 33 25 40 25 22 0 65 -39 81 -74 8
-17 29 -40 45 -50 17 -9 53 -40 80 -67 27 -27 56 -49 65 -49 22 0 19 37 -5 50
-11 6 -26 24 -35 39 -8 16 -31 39 -50 51 -20 12 -44 39 -53 59 -10 22 -36 48
-64 66 l-47 30 6 96 c5 74 2 107 -10 143 -21 62 -10 96 31 96 16 0 36 -8 44
-17z m369 -124 c4 -72 -7 -69 -14 3 -4 35 -9 81 -12 103 -5 38 -4 38 9 -9 8
-27 16 -71 17 -97z m238 85 c17 -25 31 -51 31 -58 0 -6 5 -17 11 -23 6 -6 9
-19 7 -29 -3 -13 -8 -7 -17 21 -8 22 -17 42 -20 45 -10 8 -53 90 -47 90 2 0
18 -20 35 -46z m-225 -180 c3 -8 2 -12 -4 -9 -6 3 -10 10 -10 16 0 14 7 11 14
-7z m295 -66 c-6 -15 -8 -33 -3 -40 5 -9 4 -10 -3 -3 -7 6 -8 34 -5 70 5 54 6
57 14 30 5 -19 4 -40 -3 -57z m-253 -55 c19 3 34 2 34 -2 0 -5 -12 -11 -27
-13 -16 -3 -35 -7 -43 -9 -15 -4 -17 8 -10 71 2 17 5 13 7 -14 4 -38 5 -38 39
-33z m234 -34 c0 -11 -4 -18 -10 -14 -5 3 -7 12 -3 20 7 21 13 19 13 -6z m-80
-43 c0 -8 -4 -18 -10 -21 -5 -3 -10 3 -10 14 0 12 5 21 10 21 6 0 10 -6 10
-14z m64 -13 c-10 -40 -14 -41 -14 -5 0 18 5 32 10 32 6 0 8 -11 4 -27z m-217
-48 c-27 -25 -53 -45 -59 -45 -5 0 -8 17 -6 37 3 33 7 39 33 44 17 4 41 7 55
7 23 1 21 -3 -23 -43z m-640 -36 c41 -39 59 -49 86 -49 23 0 41 -8 57 -25 16
-17 34 -25 56 -25 17 0 42 -9 55 -20 29 -24 38 -24 -156 -1 -119 14 -174 25
-215 44 -55 25 -153 93 -161 112 -7 16 51 24 141 18 l85 -5 52 -49z m769 34
c-10 -10 -19 5 -10 18 6 11 8 11 12 0 2 -7 1 -15 -2 -18z m-52 -48 c-9 -14
-20 -25 -24 -25 -4 0 -19 -10 -33 -22 -63 -56 -80 -68 -85 -63 -10 10 14 40
34 44 10 2 41 23 69 47 27 24 51 44 53 44 1 0 -5 -11 -14 -25z m556 14 c0 -15
-60 -73 -78 -75 -8 -2 -25 -14 -37 -28 -12 -14 -28 -26 -35 -26 -18 0 16 37
55 61 17 11 27 19 23 19 -4 0 5 13 20 29 28 30 52 39 52 20z m-451 -84 c-9
-31 -59 -118 -59 -102 0 13 24 57 31 57 4 0 10 18 14 40 4 22 10 40 15 40 5 0
4 -16 -1 -35z m-1019 -38 c12 -4 11 -6 -3 -6 -10 -1 -25 5 -33 13 -20 21 -17
32 4 14 9 -9 24 -18 32 -21z m1357 -39 c-48 -67 -104 -128 -117 -128 -5 0 -17
-3 -27 -7 -10 -4 10 17 45 45 34 29 62 56 62 60 0 5 8 17 18 28 9 10 25 32 35
47 10 16 21 26 24 23 3 -3 -15 -33 -40 -68z m-817 22 c12 -8 11 -10 -7 -10
-12 0 -25 5 -28 10 -8 13 15 13 35 0z m-470 -22 c19 -6 30 -13 23 -15 -6 -2
-31 5 -55 16 -24 12 -34 18 -23 15 11 -3 36 -11 55 -16z m1181 -48 c-34 -35
-61 -59 -61 -54 0 13 110 128 116 121 3 -2 -22 -33 -55 -67z m-500 27 c-10 -9
-11 -8 -5 6 3 10 9 15 12 12 3 -3 0 -11 -7 -18z m-436 -27 c-7 -11 -55 -11
-100 0 -23 6 -14 8 38 9 43 1 66 -3 62 -9z m617 -41 c-15 -28 -37 -62 -49 -75
-13 -14 -23 -27 -23 -30 0 -9 -44 -43 -55 -43 -5 0 -1 8 10 17 29 26 79 92
100 132 15 29 32 49 42 50 1 0 -10 -23 -25 -51z m-524 -31 c-2 -67 -2 -69 -5
-18 -3 31 -11 62 -20 72 -15 17 -14 18 5 18 21 0 22 -4 20 -72z m145 65 c9 -9
-33 -53 -50 -53 -8 0 -13 12 -13 30 0 26 4 30 28 30 16 0 32 -3 35 -7z m113
-28 c-25 -19 -37 -19 -30 0 4 8 16 15 28 15 21 -1 21 -1 2 -15z m-98 -94 c-49
-45 -59 -38 -13 8 22 22 41 35 43 31 2 -5 -12 -23 -30 -39z m622 40 c0 -5 -15
-18 -32 -30 -18 -11 -44 -28 -58 -37 -14 -9 -4 4 22 30 45 44 68 57 68 37z
m-713 -107 c-3 -3 -12 -4 -19 -1 -8 3 -5 6 6 6 11 1 17 -2 13 -5z m-354 -11
c-7 -2 -19 -2 -25 0 -7 3 -2 5 12 5 14 0 19 -2 13 -5z m652 -3 c-3 -5 -10 -10
-16 -10 -5 0 -9 5 -9 10 0 6 7 10 16 10 8 0 12 -4 9 -10z m-558 -36 c-3 -3
-12 -4 -19 -1 -8 3 -5 6 6 6 11 1 17 -2 13 -5z m413 2 c0 -2 -9 -6 -20 -9 -11
-3 -18 -1 -14 4 5 9 34 13 34 5z m-50 -16 c0 -5 -4 -10 -10 -10 -5 0 -10 5
-10 10 0 6 5 10 10 10 6 0 10 -4 10 -10z m-293 -6 c-3 -3 -12 -4 -19 -1 -8 3
-5 6 6 6 11 1 17 -2 13 -5z m602 -11 c-8 -9 -57 -59 -109 -112 -171 -173 -320
-332 -320 -343 0 -5 14 -23 30 -38 17 -15 30 -32 30 -37 0 -15 -154 -166 -217
-213 -89 -67 -159 -143 -193 -210 -35 -70 -47 -73 -111 -31 -118 79 -126 115
-53 256 26 50 61 117 78 149 44 85 43 153 -3 224 -33 52 -77 92 -103 92 -7 0
-20 4 -27 9 -12 8 -6 20 33 61 44 47 48 55 43 87 -5 28 -1 42 17 63 l22 27 95
-38 c83 -33 285 -93 362 -106 32 -6 77 10 132 48 26 18 69 34 120 44 56 11 95
26 130 50 58 39 62 41 44 18z m-511 -2 c12 -1 22 -5 22 -9 0 -5 -20 -6 -45 -2
-49 7 -75 21 -29 15 16 -2 39 -4 52 -4z m157 -11 c-3 -5 -11 -10 -16 -10 -6 0
-7 5 -4 10 3 6 11 10 16 10 6 0 7 -4 4 -10z m-85 -20 c0 -5 -2 -10 -4 -10 -3
0 -8 5 -11 10 -3 6 -1 10 4 10 6 0 11 -4 11 -10z m40 -5 c0 -8 -4 -15 -10 -15
-5 0 -7 7 -4 15 4 8 8 15 10 15 2 0 4 -7 4 -15z m418 -57 c-14 -18 -31 -34
-39 -36 -8 -3 2 12 20 32 43 45 52 47 19 4z m-73 -80 c-15 -18 -66 -76 -114
-128 -48 -52 -101 -110 -118 -129 -16 -19 -34 -31 -40 -28 -5 3 21 39 59 79
38 40 103 110 146 155 76 81 120 115 67 51z m331 -726 c16 -33 -5 -136 -41
-198 -149 -259 -344 -418 -527 -432 -114 -8 -108 5 89 197 121 117 196 200
255 281 123 169 192 216 224 152z"/>
<path d="M4604 6748 c-70 -66 -134 -154 -134 -186 0 -24 53 -74 110 -103 61
-32 195 -34 255 -4 43 21 105 95 105 124 0 16 -66 86 -180 190 -25 22 -55 41
-67 41 -14 0 -49 -25 -89 -62z m104 -88 c3 -8 -1 -11 -11 -7 -21 8 -80 -66
-64 -82 8 -8 7 -11 -5 -11 -31 0 -30 20 4 63 47 60 66 69 76 37z m51 -41 l23
-31 -31 23 c-17 12 -31 26 -31 31 0 17 17 7 39 -23z m51 -50 c0 -5 -7 -9 -15
-9 -15 0 -20 12 -9 23 8 8 24 -1 24 -14z m-50 -25 c0 -2 -18 -4 -40 -4 -22 0
-40 3 -40 8 0 4 18 6 40 4 22 -2 40 -6 40 -8z"/>
<path d="M5923 5538 c-77 -84 -100 -181 -68 -283 20 -62 94 -155 125 -155 24
0 173 127 195 166 13 23 16 41 11 70 -6 32 -24 56 -101 132 -102 99 -126 109
-162 70z m157 -224 c0 -9 -32 -33 -44 -34 -6 0 -5 5 2 12 7 7 12 18 12 26 0
15 -56 72 -71 72 -13 0 -11 -104 2 -117 6 -6 19 -9 28 -6 15 5 15 4 -1 -12 -9
-9 -20 -15 -26 -11 -17 10 -35 94 -27 123 8 27 10 37 13 57 2 10 112 -99 112
-110z"/>
<path d="M4501 6259 c-12 -11 -24 -34 -28 -50 -4 -21 -11 -29 -27 -29 -28 0
-76 -49 -76 -77 0 -23 42 -84 89 -127 17 -17 31 -33 31 -36 0 -4 -12 -20 -26
-36 -45 -51 -84 -127 -84 -164 0 -58 65 -143 130 -170 28 -12 36 -11 68 6 45
24 95 91 89 121 -3 19 -1 21 14 12 23 -12 23 -17 3 -80 -58 -175 83 -370 265
-369 20 1 60 9 89 19 l54 18 43 -43 c49 -51 71 -54 114 -18 39 32 41 71 6 104
-14 13 -25 27 -25 32 0 17 19 7 53 -27 44 -44 82 -46 119 -7 24 25 32 47 29
81 0 7 -22 33 -48 57 l-48 44 62 61 c84 83 87 100 29 194 -94 150 -158 164
-235 51 -44 -64 -47 -87 -16 -124 15 -18 25 -37 23 -42 -2 -6 -45 32 -97 85
l-94 96 34 67 c43 85 51 179 21 228 -28 44 -95 74 -166 74 -58 0 -132 -16
-150 -32 -15 -12 -30 -10 -52 10 -98 87 -105 92 -137 92 -20 0 -42 -8 -56 -21z
m133 -114 c37 -36 73 -65 79 -65 5 0 25 10 44 21 48 30 53 16 6 -15 -34 -23
-39 -30 -35 -56 4 -28 -10 -41 -22 -21 -3 5 -16 7 -29 3 -21 -5 -21 -4 -4 15
9 11 17 25 17 32 0 14 -118 131 -131 131 -5 0 -9 5 -9 10 0 19 16 9 84 -55z
m312 -37 c3 -21 3 -21 -33 -7 -15 7 -46 15 -68 19 -33 7 -28 8 29 7 58 -2 70
-5 72 -19z m42 0 c30 -30 3 -158 -44 -208 -31 -32 -30 -12 2 51 14 28 23 57
20 64 -2 7 2 16 10 19 19 7 18 31 -2 61 -17 26 -7 34 14 13z m-473 -58 c33
-33 54 -60 47 -60 -18 0 -112 90 -112 106 0 8 1 14 3 14 1 0 29 -27 62 -60z
m365 -50 c0 -40 -30 -40 -53 -1 -17 28 -17 30 0 40 27 15 53 -5 53 -39z m-260
-29 c0 -5 -7 -14 -15 -21 -18 -15 -20 -51 -3 -68 7 -7 8 -12 2 -12 -5 0 -15 5
-21 11 -9 9 -18 4 -37 -17 -14 -16 -26 -32 -26 -36 0 -5 -10 -18 -22 -30 -33
-33 -30 -83 7 -112 30 -24 55 -24 55 0 0 8 7 14 15 14 23 0 18 -16 -11 -39
l-26 -21 -29 21 c-67 48 -65 86 11 185 40 52 60 87 60 106 0 21 5 28 20 28 11
0 20 -4 20 -9z m112 -83 c21 -24 34 -44 29 -46 -14 -5 -81 58 -81 75 0 22 12
15 52 -29z m139 -23 c1 -17 -18 -17 -25 0 -4 11 -1 15 10 13 8 -2 15 -7 15
-13z m44 5 c3 -6 -1 -7 -9 -4 -18 7 -21 14 -7 14 6 0 13 -4 16 -10z m-53 -52
c-7 -7 -12 -8 -12 -2 0 14 12 26 19 19 2 -3 -1 -11 -7 -17z m495 -76 c27 -43
32 -56 23 -72 -15 -29 -23 -25 -15 9 5 22 0 35 -20 59 -14 16 -25 34 -25 40 0
5 -9 12 -20 15 -15 4 -25 -3 -37 -24 -10 -16 -21 -29 -25 -29 -13 0 -10 8 18
50 26 39 28 40 47 23 11 -10 35 -42 54 -71z m-826 37 c-9 -22 -10 -22 -10 -3
-1 11 2 24 6 27 12 12 14 0 4 -24z m651 -197 c37 -18 39 -21 18 -22 -20 0 -22
-2 -10 -10 8 -5 10 -10 4 -10 -6 0 -67 54 -135 120 -99 95 -130 119 -154 120
l-30 2 30 13 30 14 102 -103 c57 -58 120 -112 145 -124z m-538 172 c5 -14 4
-15 -9 -4 -17 14 -19 20 -6 20 5 0 12 -7 15 -16z m203 -26 c-3 -7 -5 -2 -5 12
0 14 2 19 5 13 2 -7 2 -19 0 -25z m-52 13 c10 -17 -11 -21 -31 -6 -18 14 -18
14 3 15 12 0 24 -4 28 -9z m490 -40 c-6 -5 -25 10 -25 20 0 5 6 4 14 -3 8 -7
12 -15 11 -17z m-475 -31 c0 -5 -2 -10 -4 -10 -3 0 -8 5 -11 10 -3 6 -1 10 4
10 6 0 11 -4 11 -10z m190 -55 c36 -36 68 -65 72 -65 5 0 8 -7 8 -15 0 -8 -4
-15 -9 -15 -13 0 -151 136 -151 149 0 21 15 10 80 -54z m-156 39 c9 -22 8 -26
-6 -22 -13 5 -20 38 -8 38 4 0 11 -7 14 -16z m463 -4 c-3 -13 0 -20 9 -20 8 0
14 5 14 10 0 6 5 10 10 10 17 0 11 -20 -7 -27 -10 -4 -25 -16 -34 -27 -14 -17
-16 -18 -22 -2 -4 10 -3 15 3 11 6 -3 11 0 11 7 1 7 2 18 4 23 1 6 3 16 3 23
1 6 5 12 8 12 4 0 4 -9 1 -20z m-522 -42 c-13 -73 -11 -111 8 -149 10 -21 23
-39 28 -39 5 0 9 -7 9 -15 0 -8 6 -12 14 -9 8 3 17 1 21 -5 3 -6 26 -11 51
-11 31 0 44 -4 44 -14 0 -8 8 -16 18 -19 9 -2 -1 -3 -23 -2 -58 2 -95 14 -134
43 -60 45 -87 143 -60 221 14 41 32 40 24 -1z m115 -115 c14 -18 17 -29 10
-31 -12 -4 -60 36 -60 50 0 18 30 6 50 -19z m360 17 c0 -5 -4 -10 -10 -10 -5
0 -10 5 -10 10 0 6 5 10 10 10 6 0 10 -4 10 -10z m94 -121 c-3 -6 -23 8 -45
31 -21 22 -46 40 -54 40 -9 0 -12 6 -9 15 5 11 19 4 60 -31 30 -26 51 -50 48
-55z m-213 61 c-13 -11 -38 -20 -56 -20 -18 0 -41 -3 -51 -7 -12 -4 -15 -2
-12 8 3 9 16 13 39 11 19 -2 43 4 54 12 31 24 55 20 26 -4z m59 0 c-8 -5 -19
-10 -25 -10 -5 0 -3 5 5 10 8 5 20 10 25 10 6 0 3 -5 -5 -10z m-40 -35 c-8 -9
-10 -27 -6 -46 l6 -30 -29 20 c-16 12 -37 21 -48 22 -13 1 -11 3 7 8 14 4 28
3 31 -1 3 -5 13 2 23 16 9 14 19 26 22 26 4 0 1 -7 -6 -15z m-123 -51 c-3 -3
-12 -4 -19 -1 -8 3 -5 6 6 6 11 1 17 -2 13 -5z m163 -64 c0 -5 -2 -10 -4 -10
-3 0 -8 5 -11 10 -3 6 -1 10 4 10 6 0 11 -4 11 -10z"/>
<path d="M4700 6030 c0 -5 5 -10 10 -10 6 0 10 5 10 10 0 6 -4 10 -10 10 -5 0
-10 -4 -10 -10z"/>
</g>
</svg>
